<svg width="24" height="24" viewBox="0 0 24 24" fill="none" xmlns="http://www.w3.org/2000/svg">
<path d="M22.8808 13.8577C22.8808 7.48846 18.0596 2.26923 12.0885 2.26923C6.11734 2.26923 1.25195 7.48846 1.25195 13.8577C1.25195 15.3615 1.51734 16.8654 2.04811 18.2808C2.66734 20.0058 4.21542 21.2442 6.07311 21.2885C6.60388 21.2885 7.04618 20.8462 7.04618 20.3154V14.7865C7.04618 14.2558 6.60388 13.8135 6.07311 13.8135C5.10003 13.8135 4.17118 14.1673 3.46349 14.6981C3.41926 14.3885 3.41926 14.1231 3.41926 13.8135C3.41926 8.59423 7.31157 4.39231 12.0885 4.39231C16.8654 4.39231 20.7577 8.63846 20.7577 13.8135C20.7577 14.1231 20.7577 14.4327 20.7135 14.6981C20.0058 14.1231 19.1212 13.7692 18.1039 13.7692C17.5731 13.7692 17.1308 14.2115 17.1308 14.7423V20.2269C17.1308 20.7577 17.5731 21.2 18.1039 21.2C19.1654 21.2 20.2712 20.8019 20.9789 20.0058C21.7308 19.2096 22.0846 18.325 22.3943 17.2635C22.7039 16.2019 22.8808 15.0519 22.8808 13.8577Z" fill="#0A0A0A"/>
</svg>
