<svg width="22" height="21" viewBox="0 0 22 21" fill="none" xmlns="http://www.w3.org/2000/svg">
<g clip-path="url(#clip0_331_17246)">
<path d="M9.88845 11.561C9.03041 10.7421 8.35296 9.72579 7.95103 8.53313L2.25535 13.9738C1.00827 15.1642 0.8703 16.983 1.79563 18.311L0.211632 19.8229C-0.0705439 20.092 -0.0705439 20.5288 0.211632 20.798C0.493851 21.0673 0.950952 21.0673 1.23313 20.798L2.81751 19.2856C4.21967 20.1709 6.12886 20.023 7.36051 18.8473L13.0643 13.4069C11.8368 13.0192 10.8064 12.4374 9.88845 11.561ZM8.82485 13.5514L7.80335 14.5264C7.52113 14.7958 7.06403 14.7958 6.78185 14.5264C6.49968 14.2573 6.49968 13.8205 6.78185 13.5514L7.80335 12.5763C8.08553 12.3069 8.54271 12.3069 8.82485 12.5763C9.10707 12.8454 9.10707 13.2822 8.82485 13.5514Z" fill="#0A0A0A"/>
<path d="M20.1037 1.81023C17.9943 -0.203306 14.782 -0.534303 12.3018 0.803422C12.297 0.808016 12.2873 0.812609 12.2825 0.817203C11.2558 1.37452 10.454 2.13959 9.86975 3.12031C9.86494 3.12491 9.86017 3.1295 9.85536 3.13869C8.48105 5.45853 8.75699 8.53068 10.9101 10.5859C12.9255 12.5099 16.0913 13.0012 18.712 11.5927C18.7168 11.5881 18.7264 11.5835 18.7312 11.5789C19.7579 11.0217 20.5597 10.2565 21.144 9.27586C21.1488 9.27126 21.1536 9.26207 21.1584 9.25748C22.5598 6.88998 22.2132 3.82373 20.1037 1.81023ZM18.5289 10.0619L11.459 3.31341C11.7859 2.89752 12.049 2.64621 12.4848 2.33425L19.5547 9.08271C19.2278 9.49869 18.9647 9.74996 18.5289 10.0619Z" fill="#0A0A0A"/>
</g>
<defs>
<clipPath id="clip0_331_17246">
<rect width="22" height="21" fill="white"/>
</clipPath>
</defs>
</svg>
