<svg width="18" height="19" viewBox="0 0 18 19" fill="none" xmlns="http://www.w3.org/2000/svg">
<path fill-rule="evenodd" clip-rule="evenodd" d="M8.99988 7.78955C9.34665 7.78955 9.62779 8.07068 9.62779 8.41745C9.62779 8.86837 9.89184 9.33888 10.3256 9.72375C10.7702 10.1182 11.2558 10.3012 11.5115 10.3012C11.8583 10.3012 12.1394 10.5823 12.1394 10.9291C12.1394 11.2759 11.8583 11.557 11.5115 11.557C10.8934 11.557 10.1889 11.2333 9.62779 10.7781V13.8593C9.62779 14.8997 8.78438 15.743 7.74407 15.743C6.70372 15.743 5.86035 14.8997 5.86035 13.8593C5.86035 12.819 6.70372 11.9756 7.74407 11.9756C7.96426 11.9756 8.17557 12.0133 8.37198 12.0828V8.41745C8.37198 8.07068 8.65311 7.78955 8.99988 7.78955ZM8.37198 13.8593C8.37198 13.5125 8.09084 13.2314 7.74407 13.2314C7.3973 13.2314 7.11616 13.5125 7.11616 13.8593C7.11616 14.2061 7.3973 14.4872 7.74407 14.4872C8.09084 14.4872 8.37198 14.2061 8.37198 13.8593Z" fill="white"/>
<path fill-rule="evenodd" clip-rule="evenodd" d="M6.23666 0.673346H11.7631C11.9472 0.673296 12.0883 0.673254 12.2117 0.68649C13.3453 0.808162 14.2131 1.73916 14.2658 2.86694C15.2627 3.16463 15.973 4.08706 15.9859 5.14502C16.4891 5.296 16.9231 5.53413 17.2783 5.91788C17.8242 6.50749 17.9934 7.23412 17.9998 8.08289C18.006 8.89892 17.8606 9.93011 17.68 11.2107L17.3125 13.8174C17.1713 14.8188 17.0566 15.6323 16.8782 16.2697C16.6915 16.9366 16.4164 17.4853 15.907 17.9072C15.4015 18.3256 14.8019 18.5061 14.0931 18.5911C13.4079 18.6733 12.5458 18.6733 11.4724 18.6733H6.5276C5.45423 18.6733 4.59209 18.6733 3.90681 18.5911C3.19808 18.5061 2.59846 18.3256 2.09304 17.9072C1.58359 17.4853 1.30844 16.9366 1.12177 16.2697C0.943331 15.6323 0.828659 14.8188 0.687497 13.8174L0.319971 11.2107C0.139402 9.93011 -0.00600445 8.89892 0.000190889 8.08289C0.00662902 7.23412 0.175787 6.50749 0.721638 5.91788C1.07682 5.53423 1.5107 5.29611 2.01372 5.14512C2.02653 4.08706 2.73697 3.16453 3.73399 2.86688C3.78665 1.73914 4.6544 0.808162 5.78811 0.68649C5.91148 0.673254 6.0526 0.673296 6.23666 0.673346ZM3.29778 4.92456C4.07286 4.85938 5.02302 4.85938 6.16682 4.85939H11.8331C12.9767 4.85938 13.9268 4.85938 14.7018 4.92453C14.587 4.41581 14.1326 4.02218 13.5726 4.02218H4.42705C3.86703 4.02218 3.41261 4.41582 3.29778 4.92456ZM12.0776 1.93514C12.5383 1.98457 12.9023 2.32794 12.9915 2.76637H5.00826C5.09744 2.32794 5.46148 1.98457 5.92212 1.93514C5.96923 1.93008 6.03638 1.92916 6.27152 1.92916H11.7283C11.9634 1.92916 12.0305 1.93008 12.0776 1.93514ZM1.64316 6.77103C1.89675 6.49712 2.27809 6.31543 3.01907 6.21688C3.77351 6.11653 4.78345 6.11521 6.21408 6.11521H11.7859C13.2165 6.11521 14.2264 6.11653 14.9809 6.21688C15.7218 6.31543 16.1032 6.49712 16.3568 6.77103C16.6045 7.03858 16.7388 7.40268 16.744 8.09244C16.7494 8.80415 16.6187 9.74266 16.4292 11.0868L16.0751 13.5984C15.9263 14.654 15.8221 15.3839 15.6689 15.9312C15.5213 16.4583 15.3477 16.7398 15.1061 16.9399C14.8604 17.1433 14.5304 17.2739 13.9435 17.3443C13.3418 17.4165 12.5552 17.4175 11.4317 17.4175H6.5682C5.44476 17.4175 4.65817 17.4165 4.05643 17.3443C3.46953 17.2739 3.13965 17.1433 2.89393 16.9399C2.65223 16.7398 2.47862 16.4583 2.3311 15.9312C2.17791 15.3839 2.07368 14.654 1.92485 13.5984L1.57073 11.0868C1.38123 9.74266 1.25056 8.80415 1.25596 8.09244C1.2612 7.40268 1.39547 7.03858 1.64316 6.77103Z" fill="white"/>
</svg>
