<svg width="22" height="24" viewBox="0 0 22 24" fill="none" xmlns="http://www.w3.org/2000/svg">
<path fill-rule="evenodd" clip-rule="evenodd" d="M12.0006 0C9.07218 0 6.69824 2.37394 6.69824 5.30233C6.69824 8.23072 9.07218 10.6047 12.0006 10.6047C14.9289 10.6047 17.3029 8.23072 17.3029 5.30233C17.3029 2.37394 14.9289 0 12.0006 0ZM8.37266 5.30233C8.37266 3.29868 9.99698 1.67442 12.0006 1.67442C14.0042 1.67442 15.6285 3.29868 15.6285 5.30233C15.6285 7.30597 14.0042 8.93023 12.0006 8.93023C9.99698 8.93023 8.37266 7.30597 8.37266 5.30233Z" fill="white"/>
<path fill-rule="evenodd" clip-rule="evenodd" d="M1.64962 5.0992C1.53747 4.65063 1.08292 4.3779 0.634359 4.49004C0.185782 4.60218 -0.086947 5.05674 0.0251944 5.50531L0.45158 7.21084C1.23829 10.3577 3.62349 12.8367 6.69788 13.7622V18.7557C6.69784 19.7586 6.69781 20.5949 6.78708 21.2589C6.88129 21.9597 7.08855 22.5924 7.59698 23.1008C8.10542 23.6092 8.73812 23.8165 9.43892 23.9107C10.1029 24 10.9392 23.9999 11.9422 23.9999H12.0583C13.0613 23.9999 13.8976 24 14.5615 23.9107C15.2623 23.8165 15.8949 23.6092 16.4034 23.1008C16.9119 22.5924 17.1191 21.9597 17.2134 21.2589C17.3026 20.5949 17.3026 19.7586 17.3026 18.7557V14.0751C18.3977 14.4016 19.2344 15.3531 19.3739 16.54L20.0989 22.7024C20.153 23.1616 20.569 23.4901 21.0282 23.4361C21.4875 23.3821 21.8159 22.9659 21.7619 22.5068L21.037 16.3443C20.7641 14.0261 18.7995 12.279 16.4653 12.279H7.62943C4.90186 11.6387 2.75673 9.52763 2.076 6.80472L1.64962 5.0992ZM8.3723 18.6976V13.9534H15.6281V18.6976C15.6281 19.7737 15.6263 20.4966 15.5538 21.0358C15.4846 21.5509 15.3649 21.7714 15.2195 21.9168C15.0739 22.0623 14.8534 22.182 14.3384 22.2513C13.7991 22.3237 13.0763 22.3255 12.0002 22.3255C10.9241 22.3255 10.2012 22.3237 9.66203 22.2513C9.14692 22.182 8.92645 22.0623 8.78098 21.9168C8.63552 21.7714 8.51582 21.5509 8.44656 21.0358C8.37407 20.4966 8.3723 19.7737 8.3723 18.6976Z" fill="white"/>
</svg>
