<svg width="26" height="23" viewBox="0 0 26 23" fill="none" xmlns="http://www.w3.org/2000/svg">
<path d="M15.167 14.3749H22.7503M15.167 18.2082H22.7503M21.9487 4.38906C22.0312 4.46204 22.0967 4.54869 22.1414 4.64406C22.186 4.73944 22.209 4.84166 22.209 4.9449C22.209 5.04813 22.186 5.15036 22.1414 5.24573C22.0967 5.3411 22.0312 5.42775 21.9487 5.50073L21.5912 5.81698L20.5837 6.70823L19.5653 5.8074L19.2078 5.48156C19.1253 5.40859 19.0598 5.32194 19.0151 5.22656C18.9704 5.13119 18.9475 5.02897 18.9475 4.92573C18.9475 4.82249 18.9704 4.72027 19.0151 4.6249C19.0598 4.52953 19.1253 4.44288 19.2078 4.3699C19.2894 4.29717 19.3864 4.23945 19.4933 4.20005C19.6003 4.16066 19.7149 4.14038 19.8307 4.14038C19.9466 4.14038 20.0612 4.16066 20.1681 4.20005C20.275 4.23945 20.3721 4.29717 20.4537 4.3699L20.5837 4.4849L20.7028 4.3699C20.8718 4.22786 21.0971 4.15027 21.3302 4.15386C21.5632 4.15744 21.7854 4.24192 21.9487 4.38906Z" stroke="white" stroke-width="1.8" stroke-linecap="round" stroke-linejoin="round"/>
<path d="M7.04167 20.1251C9.13575 20.1251 10.8333 18.6234 10.8333 16.7709C10.8333 14.9185 9.13575 13.4167 7.04167 13.4167C4.94759 13.4167 3.25 14.9185 3.25 16.7709C3.25 18.6234 4.94759 20.1251 7.04167 20.1251Z" stroke="white" stroke-width="1.8" stroke-linecap="round" stroke-linejoin="round"/>
<path d="M15.1663 9.58333C15.3879 9.27072 15.5358 8.92176 15.6013 8.55736C15.6667 8.19296 15.6483 7.82062 15.5471 7.46267C15.4459 7.10472 15.2641 6.76852 15.0125 6.47422C14.761 6.17993 14.4448 5.9336 14.083 5.75C12.9026 4.88153 11.8148 3.91917 10.833 2.875V16.7708" stroke="white" stroke-width="1.8" stroke-linecap="round" stroke-linejoin="round"/>
</svg>
