<svg width="13" height="15" viewBox="0 0 13 15" fill="none" xmlns="http://www.w3.org/2000/svg">
<path d="M2.75 11.875V6.25C2.75 5.25544 3.14509 4.30161 3.84835 3.59835C4.55161 2.89509 5.50544 2.5 6.5 2.5C7.49456 2.5 8.44839 2.89509 9.15165 3.59835C9.85491 4.30161 10.25 5.25544 10.25 6.25V11.875M2.75 11.875H10.25M2.75 11.875H1.5M10.25 11.875H11.5M5.875 13.75H7.125" stroke="#6F6F6F" stroke-width="1.5" stroke-linecap="round" stroke-linejoin="round"/>
<path d="M6.5 2.5C6.84518 2.5 7.125 2.22018 7.125 1.875C7.125 1.52982 6.84518 1.25 6.5 1.25C6.15482 1.25 5.875 1.52982 5.875 1.875C5.875 2.22018 6.15482 2.5 6.5 2.5Z" stroke="#6F6F6F" stroke-width="1.5"/>
</svg>
