<svg width="20" height="21" viewBox="0 0 20 21" fill="none" xmlns="http://www.w3.org/2000/svg">
<path d="M15.8332 3.83366H14.1665V3.00033C14.1665 2.77931 14.0787 2.56735 13.9224 2.41107C13.7661 2.25479 13.5542 2.16699 13.3332 2.16699C13.1122 2.16699 12.9002 2.25479 12.7439 2.41107C12.5876 2.56735 12.4998 2.77931 12.4998 3.00033V3.83366H7.49984V3.00033C7.49984 2.77931 7.41204 2.56735 7.25576 2.41107C7.09948 2.25479 6.88752 2.16699 6.6665 2.16699C6.44549 2.16699 6.23353 2.25479 6.07725 2.41107C5.92097 2.56735 5.83317 2.77931 5.83317 3.00033V3.83366H4.1665C3.50346 3.83366 2.86758 4.09705 2.39874 4.56589C1.9299 5.03473 1.6665 5.67062 1.6665 6.33366V16.3337C1.6665 16.9967 1.9299 17.6326 2.39874 18.1014C2.86758 18.5703 3.50346 18.8337 4.1665 18.8337H15.8332C16.4962 18.8337 17.1321 18.5703 17.6009 18.1014C18.0698 17.6326 18.3332 16.9967 18.3332 16.3337V6.33366C18.3332 5.67062 18.0698 5.03473 17.6009 4.56589C17.1321 4.09705 16.4962 3.83366 15.8332 3.83366ZM16.6665 16.3337C16.6665 16.5547 16.5787 16.7666 16.4224 16.9229C16.2661 17.0792 16.0542 17.167 15.8332 17.167H4.1665C3.94549 17.167 3.73353 17.0792 3.57725 16.9229C3.42097 16.7666 3.33317 16.5547 3.33317 16.3337V10.5003H16.6665V16.3337ZM16.6665 8.83366H3.33317V6.33366C3.33317 6.11264 3.42097 5.90068 3.57725 5.7444C3.73353 5.58812 3.94549 5.50033 4.1665 5.50033H5.83317V6.33366C5.83317 6.55467 5.92097 6.76663 6.07725 6.92291C6.23353 7.07919 6.44549 7.16699 6.6665 7.16699C6.88752 7.16699 7.09948 7.07919 7.25576 6.92291C7.41204 6.76663 7.49984 6.55467 7.49984 6.33366V5.50033H12.4998V6.33366C12.4998 6.55467 12.5876 6.76663 12.7439 6.92291C12.9002 7.07919 13.1122 7.16699 13.3332 7.16699C13.5542 7.16699 13.7661 7.07919 13.9224 6.92291C14.0787 6.76663 14.1665 6.55467 14.1665 6.33366V5.50033H15.8332C16.0542 5.50033 16.2661 5.58812 16.4224 5.7444C16.5787 5.90068 16.6665 6.11264 16.6665 6.33366V8.83366Z" fill="#FF2663"/>
</svg>
