<svg width="18" height="19" viewBox="0 0 18 19" fill="none" xmlns="http://www.w3.org/2000/svg">
<path d="M1 0.5C0.447715 0.5 0 0.947715 0 1.5C0 2.05228 0.447715 2.5 1 2.5V1.5V0.5ZM2.77778 1.5L3.77499 1.42538C3.73594 0.903501 3.30111 0.5 2.77778 0.5V1.5ZM17 4.24127L17.9942 4.34873C18.0247 4.06646 17.9338 3.78451 17.7441 3.57324C17.5545 3.36196 17.2839 3.24127 17 3.24127V4.24127ZM2.98291 4.24127L1.98569 4.31589H1.98569L2.98291 4.24127ZM14.4483 12.5872L14.3751 11.5899L14.4483 12.5872ZM16.2903 10.8075L15.2961 10.7L16.2903 10.8075ZM3.51763 11.3872L2.52042 11.4618L3.51763 11.3872ZM1 1.5V2.5H2.77778V1.5V0.5H1V1.5ZM5.65852 13.2326L5.73175 14.2299L14.5215 13.5845L14.4483 12.5872L14.3751 11.5899L5.58529 12.2353L5.65852 13.2326ZM16.2903 10.8075L17.2845 10.9149L17.9942 4.34873L17 4.24127L16.0058 4.13381L15.2961 10.7L16.2903 10.8075ZM2.77778 1.5L1.78057 1.57462L1.98569 4.31589L2.98291 4.24127L3.98012 4.16665L3.77499 1.42538L2.77778 1.5ZM2.98291 4.24127L1.98569 4.31589L2.52042 11.4618L3.51763 11.3872L4.51484 11.3126L3.98012 4.16665L2.98291 4.24127ZM17 4.24127V3.24127H2.98291V4.24127V5.24127H17V4.24127ZM14.4483 12.5872L14.5215 13.5845C15.9663 13.4784 17.1288 12.3552 17.2845 10.9149L16.2903 10.8075L15.2961 10.7C15.2442 11.1801 14.8567 11.5545 14.3751 11.5899L14.4483 12.5872ZM5.65852 13.2326L5.58529 12.2353C5.03503 12.2757 4.55602 11.8628 4.51484 11.3126L3.51763 11.3872L2.52042 11.4618C2.64393 13.1124 4.08097 14.3511 5.73175 14.2299L5.65852 13.2326Z" fill="#191919"/>
<rect x="5.88916" y="17.4907" width="0.00902998" height="0.00928262" stroke="#191919" stroke-width="2" stroke-linejoin="round"/>
<rect x="13.8892" y="17.4907" width="0.00902998" height="0.00928262" stroke="#191919" stroke-width="2" stroke-linejoin="round"/>
</svg>
