<svg width="16" height="16" viewBox="0 0 16 16" fill="none" xmlns="http://www.w3.org/2000/svg">
<path d="M1.14258 0.142822C0.590293 0.142822 0.142578 0.590537 0.142578 1.14282C0.142578 1.69511 0.590293 2.14282 1.14258 2.14282V1.14282V0.142822ZM2.66639 1.14282L3.6636 1.0682C3.62455 0.546324 3.18972 0.142822 2.66639 0.142822V1.14282ZM14.8569 3.49248L15.8511 3.59995C15.8816 3.31767 15.7907 3.03573 15.601 2.82445C15.4113 2.61317 15.1408 2.49248 14.8569 2.49248V3.49248ZM2.84221 3.49248L1.845 3.56711L2.84221 3.49248ZM5.42014 11.1784L5.34691 10.1811L5.42014 11.1784ZM1.14258 1.14282V2.14282H2.66639V1.14282V0.142822H1.14258V1.14282ZM5.42014 11.1784L5.49337 12.1758L12.5054 11.6609L12.4322 10.6636L12.3589 9.66625L5.34691 10.1811L5.42014 11.1784ZM14.2741 8.88386L15.2683 8.99132L15.8511 3.59995L14.8569 3.49248L13.8627 3.38502L13.2799 8.77639L14.2741 8.88386ZM2.66639 1.14282L1.66918 1.21744L1.845 3.56711L2.84221 3.49248L3.83942 3.41786L3.6636 1.0682L2.66639 1.14282ZM2.84221 3.49248L1.845 3.56711L2.28205 9.40767L3.27926 9.33305L4.27647 9.25843L3.83942 3.41786L2.84221 3.49248ZM14.8569 3.49248V2.49248H2.84221V3.49248V4.49248H14.8569V3.49248ZM12.4322 10.6636L12.5054 11.6609C13.9501 11.5548 15.1127 10.4315 15.2683 8.99132L14.2741 8.88386L13.2799 8.77639C13.228 9.25646 12.8405 9.63089 12.3589 9.66625L12.4322 10.6636ZM5.42014 11.1784L5.34691 10.1811C4.79665 10.2215 4.31764 9.80863 4.27647 9.25843L3.27926 9.33305L2.28205 9.40767C2.40556 11.0583 3.8426 12.297 5.49337 12.1758L5.42014 11.1784Z" fill="#191919"/>
<rect x="5.33301" y="14.8491" width="0.00773998" height="0.00795653" stroke="#191919" stroke-width="2" stroke-linejoin="round"/>
<rect x="12.1904" y="14.8491" width="0.00773998" height="0.00795653" stroke="#191919" stroke-width="2" stroke-linejoin="round"/>
</svg>
