<svg width="18" height="17" viewBox="0 0 18 17" fill="none" xmlns="http://www.w3.org/2000/svg">
<path fill-rule="evenodd" clip-rule="evenodd" d="M8.14601 1.00162C8.1948 1.2171 8.15601 1.44314 8.03818 1.63004C7.92036 1.81693 7.73314 1.94939 7.51768 1.99829C7.35416 2.03549 7.1921 2.07886 7.03185 2.12829C6.92728 2.16057 6.81738 2.17194 6.70842 2.16175C6.59946 2.15156 6.49358 2.12001 6.39681 2.0689C6.30004 2.01779 6.21429 1.94812 6.14445 1.86387C6.07461 1.77962 6.02205 1.68243 5.98976 1.57787C5.95748 1.4733 5.94611 1.3634 5.9563 1.25444C5.96649 1.14548 5.99804 1.0396 6.04915 0.942833C6.10026 0.846066 6.16993 0.760314 6.25418 0.690473C6.33843 0.620632 6.43561 0.568069 6.54018 0.535786C6.74018 0.473564 6.94296 0.419397 7.14851 0.373286C7.25527 0.349009 7.36576 0.346005 7.47368 0.364447C7.5816 0.382889 7.68482 0.422415 7.77746 0.480767C7.87009 0.539118 7.95032 0.615152 8.01356 0.704522C8.0768 0.793892 8.12181 0.894848 8.14601 1.00162ZM9.85435 1.00162C9.90324 0.786162 10.0357 0.59894 10.2226 0.481114C10.4095 0.363288 10.6355 0.324503 10.851 0.373286C14.5627 1.21495 17.3343 4.53329 17.3343 8.49995C17.3343 13.1025 13.6027 16.8333 9.00101 16.8333C5.03351 16.8333 1.71518 14.0625 0.873513 10.3508C0.830312 10.1374 0.872306 9.91565 0.990514 9.73287C1.10872 9.55008 1.29376 9.4208 1.50605 9.37268C1.71835 9.32456 1.94104 9.36142 2.12651 9.47537C2.31198 9.58933 2.4455 9.77133 2.49851 9.98245C2.76369 11.1439 3.33526 12.2131 4.15376 13.0788C4.97226 13.9444 6.00778 14.5749 7.15258 14.9047C8.29738 15.2345 9.50963 15.2515 10.6632 14.9539C11.8168 14.6563 12.8696 14.055 13.712 13.2126C14.5544 12.3702 15.1557 11.3174 15.4533 10.1638C15.7508 9.01024 15.7339 7.79799 15.4041 6.65319C15.0743 5.50839 14.4438 4.47287 13.5782 3.65437C12.7125 2.83587 11.6433 2.2643 10.4818 1.99912C10.2664 1.95005 10.0792 1.81739 9.96152 1.63032C9.84384 1.44326 9.80529 1.21711 9.85435 1.00162ZM4.51185 2.43329C4.58637 2.51353 4.64435 2.60767 4.68247 2.71034C4.72059 2.813 4.7381 2.92217 4.73399 3.03161C4.72989 3.14104 4.70426 3.2486 4.65856 3.34812C4.61287 3.44764 4.548 3.53718 4.46768 3.61162C4.34435 3.72551 4.22574 3.84384 4.11185 3.96662C3.96046 4.12414 3.75328 4.21591 3.5349 4.22217C3.31652 4.22843 3.10442 4.14869 2.94425 4.00011C2.78409 3.85153 2.68868 3.64599 2.67857 3.42776C2.66845 3.20952 2.74445 2.99604 2.89018 2.83329C3.03185 2.67995 3.17962 2.5319 3.33351 2.38912C3.41375 2.31459 3.5079 2.25661 3.61056 2.2185C3.71323 2.18038 3.8224 2.16287 3.93183 2.16697C4.04127 2.17107 4.14882 2.19671 4.24835 2.2424C4.34787 2.2881 4.43741 2.35296 4.51185 2.43329ZM9.00018 3.49995C9.22119 3.49995 9.43315 3.58775 9.58943 3.74403C9.74571 3.90031 9.83351 4.11227 9.83351 4.33329V8.15495L12.0893 10.4108C12.2411 10.568 12.3251 10.7785 12.3232 10.997C12.3213 11.2155 12.2337 11.4245 12.0792 11.579C11.9247 11.7335 11.7157 11.8211 11.4972 11.823C11.2787 11.8249 11.0682 11.7409 10.911 11.5891L8.41101 9.08912C8.25472 8.93288 8.16689 8.72095 8.16685 8.49995V4.33329C8.16685 4.11227 8.25464 3.90031 8.41092 3.74403C8.5672 3.58775 8.77917 3.49995 9.00018 3.49995ZM2.07768 5.48995C2.28884 5.55507 2.46549 5.70139 2.56879 5.89673C2.67209 6.09207 2.69357 6.32044 2.62851 6.53162C2.57908 6.69187 2.53572 6.85393 2.49851 7.01745C2.4455 7.22858 2.31198 7.41058 2.12651 7.52453C1.94104 7.63848 1.71835 7.67534 1.50605 7.62722C1.29376 7.5791 1.10872 7.44983 0.990514 7.26704C0.872306 7.08425 0.830312 6.86247 0.873513 6.64912C0.92018 6.44356 0.974346 6.24079 1.03601 6.04079C1.10113 5.82963 1.24745 5.65297 1.44279 5.54968C1.63813 5.44638 1.8665 5.4249 2.07768 5.48995Z" fill="#C6FF00"/>
</svg>
