<svg width="20" height="18" viewBox="0 0 20 18" fill="none" xmlns="http://www.w3.org/2000/svg">
<path d="M10.0002 16.5C5.8335 16.5 0.833496 12.3333 0.833496 9C0.833496 5.66667 5.8335 1.5 10.0002 1.5C14.1668 1.5 19.1668 5.66667 19.1668 9C19.1668 12.3333 14.1668 16.5 10.0002 16.5ZM10.0002 4.83333C8.89509 4.83333 7.83529 5.27232 7.05388 6.05372C6.27248 6.83512 5.8335 7.89493 5.8335 9C5.8335 10.1051 6.27248 11.1649 7.05388 11.9463C7.83529 12.7277 8.89509 13.1667 10.0002 13.1667C11.1052 13.1667 12.165 12.7277 12.9464 11.9463C13.7278 11.1649 14.1668 10.1051 14.1668 9C14.1668 7.89493 13.7278 6.83512 12.9464 6.05372C12.165 5.27232 11.1052 4.83333 10.0002 4.83333Z" stroke="black" stroke-width="2"/>
</svg>
