<svg width="16" height="18" viewBox="0 0 16 18" fill="none" xmlns="http://www.w3.org/2000/svg">
<path d="M10.0833 13.9998C9.5 13.9998 9.00695 13.7984 8.60417 13.3957C8.20139 12.9929 8 12.4998 8 11.9165C8 11.3332 8.20139 10.8401 8.60417 10.4373C9.00695 10.0346 9.5 9.83317 10.0833 9.83317C10.6667 9.83317 11.1597 10.0346 11.5625 10.4373C11.9653 10.8401 12.1667 11.3332 12.1667 11.9165C12.1667 12.4998 11.9653 12.9929 11.5625 13.3957C11.1597 13.7984 10.6667 13.9998 10.0833 13.9998ZM2.16667 17.3332C1.70833 17.3332 1.31611 17.1701 0.99 16.844C0.663889 16.5179 0.500556 16.1254 0.5 15.6665V3.99984C0.5 3.5415 0.663333 3.14928 0.99 2.82317C1.31667 2.49706 1.70889 2.33373 2.16667 2.33317H3V0.666504H4.66667V2.33317H11.3333V0.666504H13V2.33317H13.8333C14.2917 2.33317 14.6842 2.4965 15.0108 2.82317C15.3375 3.14984 15.5006 3.54206 15.5 3.99984V15.6665C15.5 16.1248 15.3369 16.5173 15.0108 16.844C14.6847 17.1707 14.2922 17.3337 13.8333 17.3332H2.16667ZM2.16667 15.6665H13.8333V7.33317H2.16667V15.6665ZM2.16667 5.6665H13.8333V3.99984H2.16667V5.6665Z" fill="#5D5D5D"/>
</svg>
