<svg width="14" height="19" viewBox="0 0 14 19" fill="none" xmlns="http://www.w3.org/2000/svg">
<path d="M2.59967 12.8665C2.81185 12.8046 3.03991 12.8296 3.2337 12.9358C3.42749 13.0421 3.57112 13.221 3.63301 13.4332C3.69489 13.6453 3.66996 13.8734 3.56368 14.0672C3.45741 14.261 3.27851 14.4046 3.06634 14.4665C2.64967 14.5882 2.34967 14.7165 2.15717 14.8332C2.35551 14.9523 2.66884 15.0857 3.10384 15.2098C4.06634 15.4848 5.44384 15.6665 6.99967 15.6665C8.55551 15.6665 9.93301 15.4848 10.8955 15.2098C11.3313 15.0857 11.6438 14.9523 11.8422 14.8332C11.6505 14.7165 11.3505 14.5882 10.9338 14.4665C10.725 14.4019 10.5499 14.2578 10.4463 14.0653C10.3427 13.8728 10.3189 13.6473 10.38 13.4375C10.4411 13.2276 10.5823 13.0501 10.773 12.9433C10.9637 12.8365 11.1888 12.8089 11.3997 12.8665C11.9563 13.029 12.4663 13.2373 12.858 13.5048C13.2205 13.754 13.6663 14.1882 13.6663 14.8332C13.6663 15.4857 13.2097 15.9232 12.8413 16.1723C12.443 16.4407 11.9222 16.6498 11.353 16.8123C10.2047 17.1415 8.66634 17.3332 6.99967 17.3332C5.33301 17.3332 3.79467 17.1415 2.64634 16.8123C2.07717 16.6498 1.55634 16.4407 1.15801 16.1723C0.789674 15.9223 0.333008 15.4857 0.333008 14.8332C0.333008 14.1882 0.778841 13.754 1.14134 13.5048C1.53301 13.2373 2.04301 13.029 2.59967 12.8665ZM6.99967 0.666504C8.65728 0.666504 10.247 1.32498 11.4191 2.49709C12.5912 3.66919 13.2497 5.2589 13.2497 6.9165C13.2497 9.0565 12.083 10.7965 10.8747 12.0332C10.3943 12.5198 9.87817 12.9697 9.33051 13.379C8.83551 13.7507 7.70384 14.4473 7.70384 14.4473C7.48921 14.5693 7.24656 14.6335 6.99967 14.6335C6.75279 14.6335 6.51014 14.5693 6.29551 14.4473C5.73389 14.1217 5.19083 13.765 4.66884 13.379C4.12037 12.9707 3.60413 12.5207 3.12467 12.0332C1.91634 10.7965 0.749674 9.0565 0.749674 6.9165C0.749674 5.2589 1.40815 3.66919 2.58026 2.49709C3.75236 1.32498 5.34207 0.666504 6.99967 0.666504ZM6.99967 2.33317C5.7841 2.33317 4.61831 2.81606 3.75877 3.6756C2.89923 4.53514 2.41634 5.70093 2.41634 6.9165C2.41634 8.42984 3.24634 9.77317 4.31634 10.8665C5.12134 11.6898 6.00801 12.3165 6.62217 12.7015L6.99967 12.9298L7.37717 12.7015C7.99051 12.3165 8.87801 11.6898 9.68301 10.8673C10.753 9.77317 11.583 8.43067 11.583 6.9165C11.583 5.70093 11.1001 4.53514 10.2406 3.6756C9.38104 2.81606 8.21525 2.33317 6.99967 2.33317ZM6.99967 4.4165C7.32798 4.4165 7.65307 4.48117 7.95638 4.60681C8.2597 4.73244 8.5353 4.91659 8.76744 5.14874C8.99959 5.38088 9.18374 5.65648 9.30937 5.95979C9.43501 6.26311 9.49967 6.5882 9.49967 6.9165C9.49967 7.24481 9.43501 7.5699 9.30937 7.87321C9.18374 8.17653 8.99959 8.45212 8.76744 8.68427C8.5353 8.91642 8.2597 9.10057 7.95638 9.2262C7.65307 9.35184 7.32798 9.4165 6.99967 9.4165C6.33663 9.4165 5.70075 9.15311 5.23191 8.68427C4.76307 8.21543 4.49967 7.57955 4.49967 6.9165C4.49967 6.25346 4.76307 5.61758 5.23191 5.14874C5.70075 4.6799 6.33663 4.4165 6.99967 4.4165ZM6.99967 6.08317C6.77866 6.08317 6.5667 6.17097 6.41042 6.32725C6.25414 6.48353 6.16634 6.69549 6.16634 6.9165C6.16634 7.13752 6.25414 7.34948 6.41042 7.50576C6.5667 7.66204 6.77866 7.74984 6.99967 7.74984C7.22069 7.74984 7.43265 7.66204 7.58893 7.50576C7.74521 7.34948 7.83301 7.13752 7.83301 6.9165C7.83301 6.69549 7.74521 6.48353 7.58893 6.32725C7.43265 6.17097 7.22069 6.08317 6.99967 6.08317Z" fill="#5D5D5D"/>
</svg>
