<svg width="16" height="17" viewBox="0 0 16 17" fill="none" xmlns="http://www.w3.org/2000/svg">
<path d="M8.00125 0.25C8.16701 0.25 8.32598 0.315848 8.44319 0.433058C8.5604 0.550268 8.62625 0.70924 8.62625 0.875V1.5H9.875C10.3723 1.5 10.8492 1.69754 11.2008 2.04917C11.5525 2.40081 11.75 2.87772 11.75 3.375V6.5H13.625C14.1223 6.5 14.5992 6.69754 14.9508 7.04917C15.3025 7.40081 15.5 7.87772 15.5 8.375V14.625C15.5 15.1223 15.3025 15.5992 14.9508 15.9508C14.5992 16.3025 14.1223 16.5 13.625 16.5H2.375C1.87772 16.5 1.40081 16.3025 1.04917 15.9508C0.697544 15.5992 0.5 15.1223 0.5 14.625V8.74125C0.500131 8.42864 0.57842 8.12103 0.727746 7.84639C0.877072 7.57175 1.0927 7.33881 1.355 7.16875L3.855 5.5475C3.98333 5.46417 4.115 5.39875 4.25 5.35125V3.375C4.25 2.87772 4.44754 2.40081 4.79917 2.04917C5.15081 1.69754 5.62772 1.5 6.125 1.5H7.37625V0.875C7.37625 0.70924 7.4421 0.550268 7.55931 0.433058C7.67652 0.315848 7.83549 0.25 8.00125 0.25ZM5.5 5.3525C6.2025 5.6025 6.75 6.265 6.75 7.12125V15.25H9.25V8.375C9.2498 7.98709 9.36991 7.60867 9.59379 7.29189C9.81766 6.9751 10.1343 6.73555 10.5 6.60625V3.375C10.5 3.20924 10.4342 3.05027 10.3169 2.93306C10.1997 2.81585 10.0408 2.75 9.875 2.75H6.125C5.95924 2.75 5.80027 2.81585 5.68306 2.93306C5.56585 3.05027 5.5 3.20924 5.5 3.375V5.3525ZM11.125 7.75C10.9592 7.75 10.8003 7.81585 10.6831 7.93306C10.5658 8.05027 10.5 8.20924 10.5 8.375V15.25H13.625C13.7908 15.25 13.9497 15.1842 14.0669 15.0669C14.1842 14.9497 14.25 14.7908 14.25 14.625V8.375C14.25 8.20924 14.1842 8.05027 14.0669 7.93306C13.9497 7.81585 13.7908 7.75 13.625 7.75H11.125ZM4.535 6.59625L2.035 8.2175C1.94745 8.27426 1.8755 8.35204 1.82572 8.44375C1.77593 8.53545 1.7499 8.63816 1.75 8.7425V14.625C1.75 14.7908 1.81585 14.9497 1.93306 15.0669C2.05027 15.1842 2.20924 15.25 2.375 15.25H5.5V7.12125C5.5001 7.00876 5.46984 6.89832 5.41241 6.80159C5.35498 6.70486 5.2725 6.62543 5.17369 6.57167C5.07487 6.51791 4.96337 6.49181 4.85096 6.49614C4.73855 6.50047 4.62939 6.53505 4.535 6.59625Z" fill="#5D5D5D"/>
</svg>
