<svg width="25" height="25" viewBox="0 0 25 25" fill="none" xmlns="http://www.w3.org/2000/svg">
<path d="M19.3933 18.5627C18.0991 20.0514 16.3628 21.0874 14.4381 21.5194C12.5133 21.9514 10.5008 21.7568 8.69455 20.9639C6.88826 20.1709 5.38282 18.8211 4.39805 17.1118C3.41329 15.4025 3.0008 13.4231 3.2208 11.4627C3.44063 9.50207 4.28156 7.66313 5.62075 6.21442C6.95995 4.7657 8.72725 3.78311 10.6646 3.41016M14.1683 3.41766C15.4693 3.6682 16.7012 4.19529 17.7808 4.96325C18.8604 5.7312 19.7624 6.72211 20.4258 7.86891C21.0893 9.01572 21.4986 10.2917 21.6262 11.6104C21.7538 12.9292 21.5965 14.2599 21.1652 15.5127" stroke="#848484" stroke-width="1.5" stroke-linecap="round"/>
<path d="M10.418 12V10.2125C10.418 9.12862 11.3133 8.25 12.418 8.25C13.5226 8.25 14.418 9.12862 14.418 10.2125V12M9.91797 12H14.918C15.472 12 15.918 12.446 15.918 13V15.75C15.918 16.304 15.472 16.75 14.918 16.75H9.91797C9.36397 16.75 8.91797 16.304 8.91797 15.75V13C8.91797 12.446 9.36397 12 9.91797 12Z" stroke="#848484" stroke-width="1.5"/>
</svg>
