<svg width="27" height="27" viewBox="0 0 27 27" fill="none" xmlns="http://www.w3.org/2000/svg">
<path d="M11.2513 18.375H6.91797" stroke="#848484" stroke-width="1.5" stroke-linecap="round"/>
<path d="M9.08464 15.125H6.91797" stroke="#848484" stroke-width="1.5" stroke-linecap="round"/>
<path d="M15.585 16.7497C15.585 15.7283 15.585 15.2176 15.9023 14.9003C16.2196 14.583 16.7303 14.583 17.7516 14.583C18.773 14.583 19.2837 14.583 19.601 14.9003C19.9183 15.2176 19.9183 15.7283 19.9183 16.7497C19.9183 17.771 19.9183 18.2817 19.601 18.599C19.2837 18.9163 18.773 18.9163 17.7516 18.9163C16.7303 18.9163 16.2196 18.9163 15.9023 18.599C15.585 18.2817 15.585 17.771 15.585 16.7497Z" stroke="#848484" stroke-width="1.5"/>
<path d="M24.2516 13.4997C24.2516 9.41416 24.2516 7.37142 22.9824 6.10221C21.7133 4.83301 19.6704 4.83301 15.585 4.83301H11.2516C7.16612 4.83301 5.12337 4.83301 3.85416 6.10221C2.58496 7.37142 2.58496 9.41416 2.58496 13.4997C2.58496 17.5851 2.58496 19.628 3.85416 20.8971C5.12337 22.1663 7.16612 22.1663 11.2516 22.1663H15.585C19.6704 22.1663 21.7133 22.1663 22.9824 20.8971C23.69 20.1895 24.0031 19.2414 24.1417 17.833" stroke="#848484" stroke-width="1.5" stroke-linecap="round"/>
<path d="M2.58496 11.333H8.00163M24.2516 11.333H12.335" stroke="#848484" stroke-width="1.5" stroke-linecap="round"/>
</svg>
