<svg width="29" height="29" viewBox="0 0 29 29" fill="none" xmlns="http://www.w3.org/2000/svg">
<path d="M14.418 9.83301V14.4997L17.3346 17.4163" stroke="#848484" stroke-width="2.5" stroke-linecap="round" stroke-linejoin="round"/>
<path d="M5.47879 8.51571L4.60381 8.52011C4.60621 8.99991 4.99458 9.38829 5.4744 9.3907L5.47879 8.51571ZM8.4442 9.40562C8.92745 9.40805 9.32116 9.01828 9.32359 8.53503C9.32602 8.05179 8.93624 7.65807 8.453 7.65564L8.4442 9.40562ZM6.33886 5.5415C6.33642 5.05826 5.94272 4.66848 5.45947 4.6709C4.97623 4.67334 4.58645 5.06706 4.58888 5.55029L6.33886 5.5415ZM4.79297 14.5C4.79297 14.0168 4.40121 13.625 3.91797 13.625C3.43472 13.625 3.04297 14.0168 3.04297 14.5H4.79297ZM20.1061 24.3527C20.5244 24.1108 20.6673 23.5755 20.4254 23.1571C20.1834 22.7389 19.6481 22.5958 19.2299 22.8379L20.1061 24.3527ZM22.7559 19.3119C22.5138 19.7302 22.6569 20.2654 23.0751 20.5074C23.4935 20.7494 24.0287 20.6064 24.2707 20.1881L22.7559 19.3119ZM6.41502 6.41647C6.07161 6.75647 6.06885 7.31049 6.40886 7.65389C6.74886 7.9973 7.30287 8.00006 7.64627 7.66005L6.41502 6.41647ZM22.424 6.49417C17.9671 2.03727 10.7649 1.99214 6.33752 6.41955L7.57496 7.65699C11.3072 3.92469 17.4014 3.94638 21.1866 7.73161L22.424 6.49417ZM6.33752 6.41955L4.86008 7.89699L6.09751 9.13443L7.57496 7.65699L6.33752 6.41955ZM5.4744 9.3907L8.4442 9.40562L8.453 7.65564L5.48319 7.64072L5.4744 9.3907ZM6.35378 8.51131L6.33886 5.5415L4.58888 5.55029L4.60381 8.52011L6.35378 8.51131ZM14.418 4.875C19.7337 4.875 24.043 9.18426 24.043 14.5H25.793C25.793 8.21776 20.7002 3.125 14.418 3.125V4.875ZM14.418 24.125C9.10223 24.125 4.79297 19.8157 4.79297 14.5H3.04297C3.04297 20.7823 8.13573 25.875 14.418 25.875V24.125ZM19.2299 22.8379C17.8151 23.6563 16.1725 24.125 14.418 24.125V25.875C16.4885 25.875 18.4321 25.3211 20.1061 24.3527L19.2299 22.8379ZM24.043 14.5C24.043 16.2545 23.5743 17.8971 22.7559 19.3119L24.2707 20.1881C25.239 18.5141 25.793 16.5705 25.793 14.5H24.043ZM7.64627 7.66005C9.38622 5.93735 11.7772 4.875 14.418 4.875V3.125C11.2976 3.125 8.46929 4.38256 6.41502 6.41647L7.64627 7.66005Z" fill="#848484"/>
</svg>
